# xmcd
#
# Track frame offsets: 
#        150
#        21796
#        44361
#        62022
#        84680
#        103764
#        125589
#        149034
#        167721
#        185684
#        204488
#        224385
#        244446
#        260359
#        283047
#
# Disc length: 4024 seconds
#
# Revision: 0
# Processed by: cddbd v1.5.2PL0 Copyright (c) Steve Scherf et al.
# Submitted via: ExactAudioCopyFreeDBPlugin 1.0
#
DISCID=ee0fb60f
DTITLE=群星 - DTS 绝响三十CDB
DYEAR=2010
DGENRE=Acid
TTITLE0=我要去西藏
TTITLE1=高原蓝
TTITLE2=往事如昔
TTITLE3=跟往事干杯
TTITLE4=逝去的诺言
TTITLE5=风平浪静
TTITLE6=爱走了心碎了
TTITLE7=别再说你爱着我
TTITLE8=爱上你是一个错
TTITLE9=原谅我一次
TTITLE10=一定要爱你
TTITLE11=心在跳情在烧
TTITLE12=最后一次的温柔
TTITLE13=怎么会狠心伤害你
TTITLE14=不是因为寂寞才想你
EXTD=
EXTT0=
EXTT1=
EXTT2=
EXTT3=
EXTT4=
EXTT5=
EXTT6=
EXTT7=
EXTT8=
EXTT9=
EXTT10=
EXTT11=
EXTT12=
EXTT13=
EXTT14=
PLAYORDER=
